<?xml version="1.0" standalone="no"?>
<!DOCTYPE svg PUBLIC "-//W3C//DTD SVG 20010904//EN"
 "http://www.w3.org/TR/2001/REC-SVG-20010904/DTD/svg10.dtd">
<svg version="1.0" xmlns="http://www.w3.org/2000/svg"
 width="5622.000000pt" height="813.000000pt" viewBox="0 0 5622.000000 813.000000"
 preserveAspectRatio="xMidYMid meet">

<g transform="translate(0.000000,813.000000) scale(0.100000,-0.100000)"
fill="#000000" stroke="none">
<path d="M6298 7274 c-5 -4 -8 -29 -8 -55 0 -26 -4 -51 -10 -54 -5 -3 -10 -30
-10 -59 0 -40 -5 -57 -20 -71 -17 -15 -20 -31 -20 -97 0 -61 -3 -80 -15 -84
-12 -5 -15 -27 -15 -109 0 -91 -2 -104 -21 -121 -18 -16 -20 -28 -17 -76 3
-41 0 -59 -9 -62 -9 -4 -13 -28 -13 -78 0 -62 -3 -75 -20 -86 -18 -11 -20 -23
-20 -101 0 -66 -4 -92 -15 -101 -10 -9 -15 -32 -15 -76 0 -34 -4 -66 -10 -69
-5 -3 -10 -41 -10 -84 0 -65 -3 -81 -20 -96 -17 -15 -20 -31 -20 -97 0 -61 -3
-80 -15 -84 -11 -5 -15 -22 -15 -69 0 -49 -4 -66 -20 -80 -17 -15 -20 -31 -20
-106 0 -48 -4 -91 -10 -94 -5 -3 -10 -41 -10 -84 0 -65 -3 -81 -20 -96 -16
-14 -20 -31 -20 -80 0 -43 -5 -66 -15 -75 -11 -9 -15 -35 -15 -106 0 -79 -3
-96 -17 -105 -14 -8 -17 -22 -15 -63 3 -38 -1 -56 -12 -65 -12 -10 -16 -31
-16 -76 0 -49 -4 -66 -20 -80 -18 -16 -20 -31 -20 -120 0 -79 -3 -105 -15
-115 -10 -8 -15 -31 -15 -66 0 -39 -4 -55 -17 -62 -13 -8 -16 -22 -14 -69 2
-44 -2 -63 -13 -72 -12 -10 -16 -34 -16 -101 0 -47 -3 -90 -7 -93 -3 -4 -15 0
-25 10 -13 11 -18 30 -18 63 0 30 -6 52 -15 60 -11 9 -15 32 -15 81 0 58 -3
71 -20 81 -15 10 -20 24 -20 59 0 29 -6 51 -15 59 -9 7 -15 29 -15 55 0 26 -6
48 -15 55 -10 8 -15 31 -15 72 0 43 -4 60 -15 64 -10 4 -15 21 -15 54 0 34 -5
52 -20 65 -14 13 -20 31 -20 60 0 22 -5 46 -12 53 -7 7 -10 37 -9 75 2 52 -1
66 -18 81 -13 12 -21 31 -21 51 0 18 -7 38 -15 45 -11 9 -15 32 -15 79 0 55
-3 68 -20 79 -16 10 -20 23 -20 66 0 30 -4 58 -10 61 -5 3 -10 26 -10 50 0 29
-5 45 -15 49 -11 4 -15 20 -15 55 0 40 -4 52 -20 61 -14 8 -20 21 -20 46 0 21
-6 37 -15 40 -8 4 -12 10 -9 15 3 6 -7 20 -22 32 -16 12 -58 48 -94 79 -36 32
-70 58 -76 58 -6 0 -17 7 -24 15 -7 8 -25 15 -39 15 -15 0 -36 7 -47 15 -28
21 -302 21 -330 0 -10 -8 -31 -15 -46 -15 -15 0 -29 -4 -33 -9 -8 -13 -65 -41
-83 -41 -20 0 -102 -68 -102 -85 0 -7 -13 -23 -30 -35 -16 -12 -30 -27 -30
-34 0 -7 -9 -21 -20 -31 -11 -10 -20 -30 -20 -45 0 -15 -7 -33 -15 -40 -8 -7
-15 -27 -15 -45 0 -20 -8 -39 -21 -51 -13 -12 -19 -27 -16 -41 2 -13 -2 -28
-9 -34 -8 -6 -14 -21 -14 -34 0 -12 -9 -30 -20 -40 -13 -12 -20 -31 -20 -55 0
-21 -7 -43 -15 -50 -8 -7 -15 -25 -15 -40 0 -15 -7 -33 -15 -40 -8 -7 -15 -23
-15 -35 0 -12 -7 -28 -15 -35 -8 -7 -15 -29 -15 -50 0 -24 -7 -43 -20 -55 -11
-10 -20 -28 -20 -40 0 -13 -7 -28 -15 -35 -8 -7 -15 -25 -15 -41 0 -15 -4 -31
-10 -34 -5 -3 -10 -21 -10 -39 0 -20 -8 -40 -20 -51 -11 -10 -20 -30 -20 -45
0 -15 -7 -33 -15 -40 -8 -7 -15 -28 -15 -47 0 -19 -9 -46 -21 -62 -13 -17 -19
-39 -17 -57 2 -20 -3 -34 -19 -46 -19 -17 -58 -18 -480 -18 -439 0 -459 1
-483 20 -22 17 -41 20 -151 20 -95 0 -130 -4 -145 -15 -10 -8 -26 -15 -35 -15
-8 0 -26 -11 -39 -25 -13 -14 -27 -25 -31 -25 -8 0 -118 -81 -174 -128 l-30
-25 -3 -241 c-3 -212 -2 -244 12 -255 9 -8 16 -22 16 -32 0 -10 5 -21 10 -24
6 -3 10 -14 10 -23 0 -17 139 -142 157 -142 5 0 20 -11 33 -25 19 -20 33 -25
76 -25 34 0 56 -5 64 -15 11 -13 122 -15 885 -15 763 0 874 2 885 15 7 8 21
15 31 15 10 0 21 5 24 10 3 6 17 10 29 10 13 0 29 7 36 15 7 8 17 15 23 15 10
0 119 89 125 103 2 4 8 5 13 1 5 -3 9 -36 9 -74 0 -38 5 -72 10 -75 6 -3 10
-28 10 -54 0 -35 5 -53 20 -66 15 -13 20 -31 20 -65 0 -33 5 -50 15 -54 11 -4
15 -21 15 -66 0 -49 4 -62 20 -72 15 -10 20 -24 20 -55 0 -23 5 -45 10 -48 6
-3 10 -35 10 -70 0 -54 3 -66 20 -75 16 -9 20 -21 20 -64 0 -35 5 -58 15 -66
8 -7 15 -29 15 -50 0 -24 7 -43 20 -55 17 -15 20 -31 20 -96 0 -43 5 -81 10
-84 6 -3 10 -25 10 -48 0 -31 5 -45 20 -55 12 -7 20 -23 20 -41 0 -16 7 -34
15 -41 11 -9 15 -32 15 -81 0 -37 5 -71 10 -74 6 -3 10 -30 10 -58 0 -41 4
-55 20 -65 17 -10 20 -23 20 -81 0 -49 4 -72 15 -81 8 -7 15 -29 15 -50 0 -24
7 -43 20 -55 15 -13 20 -31 20 -66 0 -26 5 -51 10 -54 6 -3 10 -39 10 -78 0
-61 3 -74 20 -85 14 -8 20 -23 20 -46 0 -18 7 -39 15 -46 8 -7 15 -29 15 -50
0 -24 7 -43 20 -55 11 -10 20 -26 20 -37 0 -10 5 -28 12 -41 6 -12 14 -29 18
-37 4 -8 27 -29 51 -47 24 -17 64 -49 88 -70 l44 -38 272 0 272 0 47 40 c27
22 64 51 84 64 62 40 92 73 92 101 0 15 9 35 20 45 15 13 20 31 20 66 0 26 5
51 10 54 6 3 10 34 10 69 0 50 4 67 20 81 16 15 20 31 20 85 0 36 5 71 10 76
7 7 9 994 8 2943 -2 1613 -6 2929 -10 2925z"/>
<path d="M12555 6296 c-159 -39 -299 -175 -340 -331 -8 -32 -15 -79 -15 -103
0 -90 42 -248 134 -500 52 -141 336 -916 631 -1722 295 -806 555 -1517 577
-1580 101 -287 192 -461 295 -563 139 -138 305 -197 523 -184 168 10 290 61
406 169 110 103 181 233 288 523 36 99 338 916 670 1815 332 899 620 1682 639
1740 68 201 81 313 47 421 -83 271 -390 406 -650 286 -62 -29 -152 -121 -188
-193 -43 -85 -109 -279 -702 -2052 -293 -876 -536 -1589 -540 -1585 -4 4 -260
762 -570 1683 -309 921 -580 1720 -602 1775 -48 122 -108 236 -154 292 -81 99
-286 149 -449 109z"/>
<path d="M53043 6300 c-72 -15 -131 -47 -188 -101 -65 -61 -107 -140 -132
-247 -17 -73 -18 -185 -18 -2147 0 -2300 -5 -2126 66 -2266 88 -175 278 -261
481 -218 154 33 274 149 325 314 17 57 18 150 18 2175 l0 2115 -23 72 c-43
139 -144 247 -267 288 -59 20 -202 28 -262 15z"/>
<path d="M18080 4974 c-640 -57 -1064 -270 -1259 -636 -61 -113 -85 -205 -85
-323 -1 -125 21 -180 100 -255 91 -86 212 -121 344 -101 123 19 127 23 277
248 182 273 307 367 555 420 122 26 442 25 553 -1 191 -45 279 -117 342 -284
30 -82 51 -182 61 -295 7 -74 6 -88 -8 -92 -94 -28 -300 -83 -445 -118 -169
-42 -302 -71 -900 -198 -132 -27 -280 -64 -330 -80 -357 -119 -598 -361 -686
-689 -32 -119 -33 -367 -1 -481 94 -343 340 -598 687 -713 121 -39 215 -55
375 -62 222 -10 441 19 643 86 180 59 472 221 667 368 30 23 58 42 62 42 4 0
28 -33 54 -73 119 -184 268 -343 368 -392 73 -36 159 -43 246 -21 158 41 295
176 316 313 8 53 -8 141 -57 308 -108 374 -103 316 -104 1160 0 780 -3 826
-54 1041 -121 500 -422 733 -1049 810 -120 15 -572 27 -672 18z m896 -2033
c-17 -413 -67 -585 -218 -746 -164 -176 -403 -279 -673 -292 -89 -4 -139 -1
-195 11 -264 56 -439 274 -416 518 13 140 73 235 204 322 113 75 154 87 662
200 281 62 497 118 585 149 22 8 44 12 49 9 5 -3 6 -78 2 -171z"/>
<path d="M22160 4969 c-627 -64 -1102 -381 -1355 -904 -129 -265 -189 -527
-202 -870 -14 -382 52 -726 192 -1007 154 -309 407 -561 706 -702 239 -113
547 -176 864 -176 651 1 1191 242 1474 658 111 165 170 362 150 505 -15 115
-105 244 -207 300 -92 50 -235 51 -330 3 -65 -33 -164 -142 -226 -247 -104
-178 -190 -286 -290 -367 -165 -134 -360 -192 -591 -179 -131 8 -209 28 -330
87 -255 122 -425 384 -491 755 -22 123 -25 437 -6 568 71 490 333 814 712 883
206 37 446 -4 595 -101 89 -57 239 -214 333 -347 109 -155 171 -221 236 -253
183 -90 433 7 524 203 23 49 27 70 27 152 0 118 -32 219 -108 345 -230 378
-703 644 -1232 695 -127 12 -322 11 -445 -1z"/>
<path d="M26100 4974 c-640 -57 -1064 -270 -1259 -636 -61 -113 -85 -205 -85
-323 -1 -125 21 -180 100 -255 91 -86 212 -121 344 -101 123 19 127 23 277
248 182 273 307 367 555 420 122 26 442 25 553 -1 191 -45 279 -117 342 -284
30 -82 51 -182 61 -295 7 -74 6 -88 -8 -92 -94 -28 -300 -83 -445 -118 -169
-42 -302 -71 -900 -198 -132 -27 -280 -64 -330 -80 -357 -119 -598 -361 -686
-689 -32 -119 -33 -367 -1 -481 94 -343 340 -598 687 -713 121 -39 215 -55
375 -62 222 -10 441 19 643 86 180 59 472 221 667 368 30 23 58 42 62 42 4 0
28 -33 54 -73 119 -184 268 -343 368 -392 73 -36 159 -43 246 -21 158 41 295
176 316 313 8 53 -8 141 -57 308 -108 374 -103 316 -104 1160 0 780 -3 826
-54 1041 -121 500 -422 733 -1049 810 -120 15 -572 27 -672 18z m896 -2033
c-17 -413 -67 -585 -218 -746 -164 -176 -403 -279 -673 -292 -89 -4 -139 -1
-195 11 -264 56 -439 274 -416 518 13 140 73 235 204 322 113 75 154 87 662
200 281 62 497 118 585 149 22 8 44 12 49 9 5 -3 6 -78 2 -171z"/>
<path d="M34250 4969 c-627 -64 -1102 -381 -1355 -904 -129 -265 -189 -527
-202 -870 -14 -382 52 -726 192 -1007 154 -309 407 -561 706 -702 239 -113
547 -176 864 -176 651 1 1191 242 1474 658 111 165 170 362 150 505 -15 115
-105 244 -207 300 -92 50 -235 51 -330 3 -65 -33 -164 -142 -226 -247 -104
-178 -190 -286 -290 -367 -165 -134 -360 -192 -591 -179 -131 8 -209 28 -330
87 -255 122 -425 384 -491 755 -22 123 -25 437 -6 568 71 490 333 814 712 883
206 37 446 -4 595 -101 89 -57 239 -214 333 -347 109 -155 171 -221 236 -253
183 -90 433 7 524 203 23 49 27 70 27 152 0 118 -32 219 -108 345 -230 378
-703 644 -1232 695 -127 12 -322 11 -445 -1z"/>
<path d="M29050 4954 c-145 -39 -239 -148 -275 -321 -22 -103 -22 -2844 0
-2948 45 -213 195 -358 387 -372 238 -17 412 110 475 349 14 55 17 168 23 928
7 907 11 974 56 1129 36 124 122 260 228 358 172 162 405 232 641 193 218 -36
334 -134 403 -343 66 -199 64 -166 72 -1227 6 -943 7 -967 27 -1042 29 -103
56 -152 119 -218 206 -216 568 -157 695 115 61 129 61 129 56 1288 -4 1129 -5
1150 -57 1337 -29 104 -107 261 -177 356 -97 130 -209 222 -368 301 -162 81
-316 119 -520 129 -464 23 -853 -145 -1153 -498 l-77 -91 -6 114 c-8 133 -19
182 -62 262 -92 174 -288 254 -487 201z"/>
<path d="M36730 4956 c-76 -22 -151 -66 -205 -120 -116 -116 -151 -268 -101
-436 13 -47 284 -739 600 -1539 317 -799 576 -1460 576 -1468 0 -23 -113 -292
-177 -419 -118 -238 -206 -307 -414 -321 -67 -4 -109 -1 -195 17 -195 40 -345
13 -436 -81 -56 -57 -78 -120 -78 -224 0 -97 21 -162 71 -219 53 -60 104 -89
213 -120 88 -26 89 -26 481 -26 391 0 393 0 481 25 309 89 502 268 679 630 90
184 88 178 770 1970 668 1756 703 1855 693 1997 -10 131 -96 250 -226 311 -61
29 -75 32 -167 32 -191 0 -264 -50 -360 -249 -68 -141 -80 -174 -510 -1409
-197 -565 -361 -1024 -365 -1020 -4 5 -184 526 -400 1158 -216 633 -408 1182
-425 1222 -37 81 -99 175 -141 215 -53 50 -137 80 -233 84 -52 2 -104 -2 -131
-10z"/>
<path d="M40658 4960 c-114 -20 -214 -90 -266 -188 -71 -133 -66 35 -70 -2187
-2 -1354 0 -2042 8 -2131 20 -247 75 -380 182 -435 33 -17 60 -19 225 -19
l188 0 52 35 c58 39 89 76 126 151 62 124 60 96 66 947 l6 778 84 -96 c241
-277 494 -431 801 -486 113 -20 413 -18 525 5 549 109 941 473 1134 1052 79
239 112 456 113 749 1 308 -29 517 -108 757 -187 562 -574 923 -1118 1040
-147 32 -426 31 -576 -1 -301 -64 -563 -236 -817 -533 -18 -21 -35 -38 -38
-38 -3 0 -5 46 -5 103 0 175 -40 290 -132 384 -58 59 -138 99 -225 113 -65 11
-88 11 -155 0z m1647 -700 c306 -96 511 -354 596 -752 27 -121 37 -453 20
-593 -68 -536 -364 -885 -775 -912 -338 -22 -643 165 -801 492 -88 181 -125
371 -125 645 0 431 98 713 323 926 117 112 236 175 397 209 95 21 275 13 365
-15z"/>
<path d="M45901 4959 c-430 -45 -821 -228 -1080 -505 -154 -164 -291 -399
-365 -624 -67 -201 -106 -458 -106 -690 0 -430 117 -832 328 -1130 86 -122
260 -296 382 -382 315 -223 712 -331 1155 -315 313 12 573 75 813 196 108 54
267 168 366 262 275 260 447 612 512 1044 24 161 24 484 1 645 -46 312 -152
592 -310 817 -80 113 -257 291 -370 370 -112 79 -292 171 -426 217 -256 89
-604 126 -900 95z m379 -670 c273 -44 482 -206 611 -474 94 -195 131 -384 131
-675 0 -280 -36 -474 -121 -656 -161 -343 -445 -519 -811 -501 -249 12 -445
112 -595 302 -178 225 -268 605 -237 998 31 383 152 669 354 836 172 142 432
209 668 170z"/>
<path d="M49971 4959 c-430 -45 -821 -228 -1080 -505 -154 -164 -291 -399
-365 -624 -67 -201 -106 -458 -106 -690 0 -430 117 -832 328 -1130 86 -122
260 -296 382 -382 315 -223 712 -331 1155 -315 313 12 573 75 813 196 108 54
267 168 366 262 275 260 447 612 512 1044 24 161 24 484 1 645 -46 312 -152
592 -310 817 -80 113 -257 291 -370 370 -112 79 -292 171 -426 217 -256 89
-604 126 -900 95z m379 -670 c273 -44 482 -206 611 -474 94 -195 131 -384 131
-675 0 -280 -36 -474 -121 -656 -161 -343 -445 -519 -811 -501 -249 12 -445
112 -595 302 -178 225 -268 605 -237 998 31 383 152 669 354 836 172 142 432
209 668 170z"/>
</g>
</svg>
