<?xml version="1.0" standalone="no"?>
<!DOCTYPE svg PUBLIC "-//W3C//DTD SVG 20010904//EN"
 "http://www.w3.org/TR/2001/REC-SVG-20010904/DTD/svg10.dtd">
<svg version="1.0" xmlns="http://www.w3.org/2000/svg"
 width="1021.000000pt" height="339.000000pt" viewBox="0 0 1021.000000 339.000000"
 preserveAspectRatio="xMidYMid meet">

<g transform="translate(0.000000,339.000000) scale(0.100000,-0.100000)"
fill="#000000" stroke="none">
<path d="M1494 2850 l-41 -29 -22 -148 c-12 -81 -31 -202 -41 -268 -10 -66
-26 -172 -35 -235 -15 -108 -22 -156 -60 -405 -8 -55 -18 -126 -21 -158 -4
-32 -8 -56 -10 -55 -3 4 -28 118 -49 228 -8 41 -18 89 -21 105 -3 17 -14 73
-25 125 -47 238 -57 274 -84 298 -32 27 -65 28 -98 1 -27 -20 -37 -48 -122
-331 l-26 -88 -158 0 c-158 0 -158 0 -185 -26 -21 -22 -26 -36 -26 -76 0 -58
20 -93 62 -107 49 -17 373 -14 407 4 29 14 52 58 66 125 6 29 13 6 46 -150 21
-102 61 -295 89 -430 53 -259 66 -293 115 -298 78 -10 99 24 125 195 10 70 28
189 40 263 11 74 25 164 30 200 5 36 16 106 24 155 8 50 22 144 32 211 l17
120 51 -13 c84 -22 202 -17 262 11 93 43 159 119 200 231 9 22 18 92 21 155 7
146 -12 204 -90 283 -62 63 -128 96 -217 108 -36 5 -81 14 -100 19 -63 18
-112 11 -156 -20z m236 -172 c25 -6 61 -21 80 -33 35 -22 69 -55 56 -55 -4 0
0 -7 8 -16 12 -11 16 -36 16 -99 0 -69 -4 -92 -25 -133 -30 -60 -66 -93 -122
-111 -35 -12 -51 -11 -118 4 -58 13 -75 20 -71 31 3 8 10 45 16 82 6 37 17
110 25 162 8 52 17 116 20 141 6 44 6 45 38 42 18 -2 52 -9 77 -15z"/>
<path d="M2425 2158 c-32 -18 -44 -40 -45 -80 0 -36 240 -760 274 -826 41 -80
160 -81 201 -1 35 66 275 793 275 831 0 46 -35 88 -74 88 -59 0 -70 -23 -182
-390 -58 -190 -109 -348 -113 -352 -4 -4 -35 86 -70 200 -133 433 -160 510
-183 527 -26 18 -55 19 -83 3z"/>
<path d="M9691 2153 c-12 -10 -26 -36 -31 -58 -5 -22 -10 -209 -10 -415 0
-206 5 -393 10 -415 16 -72 79 -97 125 -50 l25 24 0 441 0 441 -25 24 c-28 29
-64 32 -94 8z"/>
<path d="M3367 1900 c-106 -27 -177 -95 -177 -170 0 -38 31 -70 68 -70 22 0
35 10 60 46 20 27 47 51 69 61 49 20 145 14 172 -11 23 -21 38 -83 24 -97 -5
-5 -74 -25 -153 -45 -155 -38 -183 -49 -217 -86 -82 -87 -65 -233 35 -303 40
-27 51 -30 120 -29 81 0 128 17 200 72 18 14 34 23 35 21 2 -2 14 -21 27 -41
34 -51 61 -64 99 -49 39 17 55 55 40 101 -7 19 -15 127 -18 240 -9 261 -24
303 -126 346 -46 19 -203 28 -258 14z m223 -403 c0 -107 -71 -186 -168 -187
-58 0 -102 41 -102 95 0 48 33 80 101 99 30 8 77 21 104 29 28 8 53 15 58 16
4 1 7 -23 7 -52z"/>
<path d="M4110 1897 c-124 -35 -199 -130 -221 -281 -26 -175 47 -337 178 -391
92 -39 242 -25 325 30 48 32 88 92 95 142 8 64 -48 114 -95 84 -7 -4 -27 -30
-45 -57 -84 -127 -213 -127 -277 1 -20 41 -25 65 -25 130 0 65 5 89 25 130 30
61 78 95 132 95 55 0 88 -21 137 -84 36 -49 46 -56 76 -56 58 0 84 65 51 128
-55 105 -224 166 -356 129z"/>
<path d="M4807 1900 c-106 -27 -177 -95 -177 -170 0 -38 31 -70 68 -70 22 0
35 10 60 46 20 27 47 51 69 61 49 20 145 14 172 -11 23 -21 38 -83 24 -97 -5
-5 -74 -25 -153 -45 -155 -38 -183 -49 -217 -86 -82 -87 -65 -233 35 -303 40
-27 51 -30 120 -29 81 0 128 17 200 72 18 14 34 23 35 21 2 -2 14 -21 27 -41
34 -51 61 -64 99 -49 39 17 55 55 40 101 -7 19 -15 127 -18 240 -9 261 -24
303 -126 346 -46 19 -203 28 -258 14z m223 -403 c0 -107 -71 -186 -168 -187
-58 0 -102 41 -102 95 0 48 33 80 101 99 30 8 77 21 104 29 28 8 53 15 58 16
4 1 7 -23 7 -52z"/>
<path d="M5379 1891 l-24 -19 -3 -299 c-2 -164 0 -308 3 -320 7 -31 44 -63 71
-63 13 0 36 11 51 24 l28 24 5 214 c3 122 11 224 17 239 6 14 27 40 47 57 39
34 84 42 129 21 48 -22 52 -39 57 -284 4 -198 8 -235 23 -258 33 -51 107 -45
128 10 6 17 9 121 7 278 -3 250 -3 250 -30 295 -38 66 -94 95 -183 95 -58 0
-78 -5 -117 -27 -25 -15 -55 -40 -67 -55 -20 -27 -20 -28 -21 -5 -1 76 -68
116 -121 73z"/>
<path d="M6290 1897 c-124 -35 -199 -130 -221 -281 -26 -175 47 -337 178 -391
92 -39 242 -25 325 30 48 32 88 92 95 142 8 64 -48 114 -95 84 -7 -4 -27 -30
-45 -57 -84 -127 -213 -127 -277 1 -20 41 -25 65 -25 130 0 65 5 89 25 130 30
61 78 95 132 95 55 0 88 -21 137 -84 36 -49 46 -56 76 -56 58 0 84 65 51 128
-55 105 -224 166 -356 129z"/>
<path d="M6774 1898 c-22 -10 -44 -47 -44 -73 0 -8 49 -150 109 -317 l109
-302 -20 -51 c-11 -27 -29 -61 -41 -73 -19 -21 -29 -23 -72 -19 -63 6 -91 -5
-99 -37 -17 -69 44 -103 163 -92 81 7 127 36 163 102 31 57 265 725 274 783 5
34 3 43 -19 65 -30 30 -62 33 -89 9 -11 -9 -50 -114 -94 -252 -42 -130 -79
-239 -83 -243 -4 -5 -27 56 -51 135 -24 78 -58 187 -76 242 -41 126 -70 153
-130 123z"/>
<path d="M7459 1891 l-24 -19 0 -452 0 -452 24 -19 c30 -24 62 -24 92 0 23 19
24 25 27 186 l3 166 49 -45 c55 -51 112 -71 182 -63 61 8 117 37 157 83 117
132 119 409 5 543 -96 111 -241 119 -351 18 l-43 -40 0 32 c0 39 -38 81 -73
81 -14 0 -35 -9 -48 -19z m361 -137 c57 -48 74 -97 74 -204 0 -108 -17 -156
-76 -205 -69 -58 -177 -11 -213 93 -34 100 -11 243 47 299 39 36 51 41 100 42
26 1 46 -7 68 -25z"/>
<path d="M8385 1897 c-94 -32 -159 -89 -197 -175 -32 -73 -37 -220 -9 -310 51
-168 212 -254 387 -207 159 43 251 212 223 411 -18 129 -81 220 -184 265 -61
27 -164 34 -220 16z m166 -140 c56 -36 83 -105 83 -207 0 -71 -4 -94 -24 -135
-61 -123 -202 -128 -264 -10 -17 33 -21 58 -21 145 0 87 4 112 21 145 42 82
134 110 205 62z"/>
<path d="M9115 1897 c-94 -32 -159 -89 -197 -175 -32 -73 -37 -220 -9 -310 51
-168 212 -254 387 -207 159 43 251 212 223 411 -18 129 -81 220 -184 265 -61
27 -164 34 -220 16z m166 -140 c56 -36 83 -105 83 -207 0 -71 -4 -94 -24 -135
-61 -123 -202 -128 -264 -10 -17 33 -21 58 -21 145 0 87 4 112 21 145 42 82
134 110 205 62z"/>
</g>
</svg>
